<svg width="48" height="48" version="1.1" xmlns="http://www.w3.org/2000/svg" desc="Created with imagetracer.js version 1.2.6" >
 <linearGradient id="my_gradient_9-9-6" x1="0" y1="0" x2="48" y2="48" gradientUnits="userSpaceOnUse">
   <stop offset="0%" stop-opacity="1" style="stop-color:rgb(18,18,12)"/>
   <stop offset="100%" stop-opacity="1" style="stop-color:rgb(98,98,92)"/>
 </linearGradient>
 <linearGradient id="my_gradient_0-0-0" x1="0" y1="0" x2="48" y2="48" gradientUnits="userSpaceOnUse">
   <stop offset="0%" stop-opacity="1" style="stop-color:rgb(0,0,0)"/>
   <stop offset="100%" stop-opacity="1" style="stop-color:rgb(80,80,80)"/>
 </linearGradient>
 <linearGradient id="my_gradient_127-218-241" x1="0" y1="0" x2="48" y2="48" gradientUnits="userSpaceOnUse">
   <stop offset="0%" stop-opacity="1" style="stop-color:rgb(0,218,241)"/>
   <stop offset="100%" stop-opacity="1" style="stop-color:rgb(0,218,181)"/>
 </linearGradient>
 <linearGradient id="my_gradient_124-163-157" x1="0" y1="0" x2="48" y2="48" gradientUnits="userSpaceOnUse">
   <stop offset="0%" stop-opacity="1" style="stop-color:rgb(124,163,157)"/>
   <stop offset="100%" stop-opacity="1" style="stop-color:rgb(84,123,117)"/>
 </linearGradient>
 <linearGradient id="my_gradient_81-179-224" x1="0" y1="0" x2="48" y2="48" gradientUnits="userSpaceOnUse">
   <stop offset="0%" stop-opacity="1" style="stop-color:rgb(0,179,224)"/>
   <stop offset="100%" stop-opacity="1" style="stop-color:rgb(0,179,164)"/>
 </linearGradient>
 <linearGradient id="my_gradient_238-182-29" x1="0" y1="0" x2="48" y2="48" gradientUnits="userSpaceOnUse">
   <stop offset="0%" stop-opacity="1" style="stop-color:rgb(238,182,0)"/>
   <stop offset="100%" stop-opacity="1" style="stop-color:rgb(178,182,0)"/>
 </linearGradient>
 <linearGradient id="my_gradient_33-92-137" x1="0" y1="0" x2="48" y2="48" gradientUnits="userSpaceOnUse">
   <stop offset="0%" stop-opacity="1" style="stop-color:rgb(0,92,137)"/>
   <stop offset="100%" stop-opacity="1" style="stop-color:rgb(0,92,197)"/>
 </linearGradient>
 <linearGradient id="my_gradient_30-133-203" x1="0" y1="0" x2="48" y2="48" gradientUnits="userSpaceOnUse">
   <stop offset="0%" stop-opacity="1" style="stop-color:rgb(0,133,203)"/>
   <stop offset="100%" stop-opacity="1" style="stop-color:rgb(0,133,263)"/>
 </linearGradient>
 <linearGradient id="my_gradient_15-17-14" x1="0" y1="0" x2="48" y2="48" gradientUnits="userSpaceOnUse">
   <stop offset="0%" stop-opacity="1" style="stop-color:rgb(30,34,28)"/>
   <stop offset="100%" stop-opacity="1" style="stop-color:rgb(110,114,108)"/>
 </linearGradient>
 <linearGradient id="my_gradient_130-120-48" x1="0" y1="0" x2="48" y2="48" gradientUnits="userSpaceOnUse">
   <stop offset="0%" stop-opacity="1" style="stop-color:rgb(130,120,0)"/>
   <stop offset="100%" stop-opacity="1" style="stop-color:rgb(190,120,0)"/>
 </linearGradient>
 <path desc="colorId:0 segment:0 r:9 g:9 b:6 isHole:0" fill="none" stroke="url(#my_gradient_9-9-6)" stroke-width="2" opacity="0.30980392156862746" d="M 36.5 7 Q 41 6 42 8.5 L 40.5 8 L 36 7.5 Z" />
 <path desc="colorId:0 segment:1 r:9 g:9 b:6 isHole:0" fill="none" stroke="url(#my_gradient_9-9-6)" stroke-width="2" opacity="0.30980392156862746" d="M 44.5 7 L 45 12.5 L 44 12.5 L 44 7.5 Z" />
 <path desc="colorId:0 segment:4 r:9 g:9 b:6 isHole:0" fill="none" stroke="url(#my_gradient_9-9-6)" stroke-width="2" opacity="0.30980392156862746" d="M 45.5 21 L 46 26.5 L 44 27.5 Q 46.3 26.2 45 21.5 Z" />
 <path desc="colorId:0 segment:6 r:9 g:9 b:6 isHole:0" fill="none" stroke="url(#my_gradient_9-9-6)" stroke-width="2" opacity="0.30980392156862746" d="M 8.5 35 L 10 40.5 L 8 39.5 L 8 35.5 Z" />
 <path desc="colorId:0 segment:9 r:9 g:9 b:6 isHole:0" fill="none" stroke="url(#my_gradient_9-9-6)" stroke-width="2" opacity="0.30980392156862746" d="M 15.5 42 L 14.5 44 L 13 43.5 L 15 42.5 Z" />
 <path desc="colorId:0 segment:10 r:9 g:9 b:6 isHole:0" fill="none" stroke="url(#my_gradient_9-9-6)" stroke-width="2" opacity="0.30980392156862746" d="M 24.5 43 L 30 43.5 L 24.5 44 L 24 43.5 Z" />
 <path desc="colorId:1 segment:3 r:0 g:0 b:0 isHole:0" fill="none" stroke="url(#my_gradient_0-0-0)" stroke-width="2" opacity="0.00392156862745098" d="M 45.5 9 L 46 11.5 L 45 11.5 L 45 9.5 Z" />
 <path desc="colorId:1 segment:5 r:0 g:0 b:0 isHole:0" fill="none" stroke="url(#my_gradient_0-0-0)" stroke-width="2" opacity="0.00392156862745098" d="M 44.5 13 L 45 14.5 L 45 16.5 L 44.5 18 L 43 15.5 L 44 13.5 Z" />
 <path desc="colorId:1 segment:6 r:0 g:0 b:0 isHole:0" fill="none" stroke="url(#my_gradient_0-0-0)" stroke-width="2" opacity="0.00392156862745098" d="M 24.5 16 L 26 16.5 L 23.5 18 L 24 16.5 Z" />
 <path desc="colorId:1 segment:7 r:0 g:0 b:0 isHole:0" fill="none" stroke="url(#my_gradient_0-0-0)" stroke-width="2" opacity="0.00392156862745098" d="M 45.5 27 L 44.5 31 L 43.5 30 L 21 28.5 L 45 27.5 Z" />
 <path desc="colorId:1 segment:9 r:0 g:0 b:0 isHole:0" fill="none" stroke="url(#my_gradient_0-0-0)" stroke-width="2" opacity="0.00392156862745098" d="M 25.5 33 L 29 33.5 L 25.5 34 L 25 33.5 Z" />
 <path desc="colorId:1 segment:10 r:0 g:0 b:0 isHole:0" fill="none" stroke="url(#my_gradient_0-0-0)" stroke-width="2" opacity="0.00392156862745098" d="M 9 34 L 11 34.5 L 9 35.5 L 9 34.5 Z" />
 <path desc="colorId:1 segment:11 r:0 g:0 b:0 isHole:0" fill="none" stroke="url(#my_gradient_0-0-0)" stroke-width="2" opacity="0.00392156862745098" d="M 11.5 36 L 15 40.5 L 14 40.5 L 11 36.5 Z" />
 <path desc="colorId:1 segment:14 r:0 g:0 b:0 isHole:0" fill="none" stroke="url(#my_gradient_0-0-0)" stroke-width="2" opacity="0.00392156862745098" d="M 17.5 41 L 18 42.5 L 15.5 44 L 17 41.5 Z" />
 <path desc="colorId:1 segment:15 r:0 g:0 b:0 isHole:0" fill="none" stroke="url(#my_gradient_0-0-0)" stroke-width="2" opacity="0.00392156862745098" d="M 8.5 44 L 14 44.5 L 8.5 45 L 8 44.5 Z" />
 <path desc="colorId:2 segment:0 r:0 g:0 b:0 isHole:0" fill="none" stroke="url(#my_gradient_0-0-0)" stroke-width="2" opacity="0" d="M 0 0 L 48 0 L 48 48 L 0 48 L 0 0.5 Z M  31 3.5 L 15.5 9 L 15.5 9 L 15.5 9 L 15.5 9 L 15.5 9 Q 31 3.5 15.5 9 L 15.5 9 Q 31 3.5 15.5 9 Q 31 3.5 15.5 9 Q 31 3.5 15.5 9 Q 31 3.5 15.5 9 L 15.5 9 L 15.5 9 Q 31 3.5 15.5 9 Z" />
 <path desc="colorId:2 segment:2 r:0 g:0 b:0 isHole:0" fill="none" stroke="url(#my_gradient_0-0-0)" stroke-width="2" opacity="0" d="M 37.5 8 L 42 9 L 41.5 12 L 37 8.5 Z" />
 <path desc="colorId:2 segment:3 r:0 g:0 b:0 isHole:0" fill="none" stroke="url(#my_gradient_0-0-0)" stroke-width="2" opacity="0" d="M 26.5 16 L 32 18.5 L 33 20.5 L 21.5 21 L 22 19.5 Q 21.3 17.3 23.5 18 L 26 16.5 Z" />
 <path desc="colorId:2 segment:4 r:0 g:0 b:0 isHole:0" fill="none" stroke="url(#my_gradient_0-0-0)" stroke-width="2" opacity="0" d="M 21.5 29 L 34 29.5 Q 32.1 34.1 24.5 33 L 21 29.5 Z" />
 <path desc="colorId:2 segment:5 r:0 g:0 b:0 isHole:0" fill="none" stroke="url(#my_gradient_0-0-0)" stroke-width="2" opacity="0" d="M 10.5 35 L 14 41 L 10 41 L 10 39.5 L 9 36.5 L 10 35.5 Z" />
 <path desc="colorId:3 segment:0 r:127 g:218 b:241 isHole:0" fill="none" stroke="url(#my_gradient_127-218-241)" stroke-width="2" opacity="0.9921568627450981" d="M 24.5 7 L 26 7.5 Q 18.1 10.6 13.5 17 L 19.5 10 L 24 7.5 Z" />
 <path desc="colorId:3 segment:1 r:127 g:218 b:241 isHole:0" fill="none" stroke="url(#my_gradient_127-218-241)" stroke-width="2" opacity="0.9921568627450981" d="M 29.5 9 L 37 15.5 L 38 26 L 19.5 26 Q 18.5 26 19 30.5 L 19.5 32 L 14.5 24 L 13 24.5 L 21.5 15 L 20 17.5 L 19 22 L 35 21.5 L 30.5 15 L 24.5 14 L 23 14.5 L 29 9.5 Z" />
 <path desc="colorId:4 segment:0 r:124 g:163 b:157 isHole:0" fill="none" stroke="url(#my_gradient_124-163-157)" stroke-width="2" opacity="0.5450980392156862" d="M 27.5 5 L 29 5.5 L 25.5 7 L 25.5 6 L 27 5.5 Z" />
 <path desc="colorId:4 segment:1 r:124 g:163 b:157 isHole:0" fill="none" stroke="url(#my_gradient_124-163-157)" stroke-width="2" opacity="0.5450980392156862" d="M 7.5 25 L 7 26.5 L 5.5 29 L 6 27.5 L 7 25.5 Z" />
 <path desc="colorId:6 segment:0 r:81 g:179 b:224 isHole:0" fill="none" stroke="url(#my_gradient_81-179-224)" stroke-width="2" opacity="0.9921568627450981" d="M 22.5 7 L 24 7.5 L 13 16.5 L 9.5 23 L 9 21.5 Q 11.2 13.2 17.5 9 L 22 7.5 Z" />
 <path desc="colorId:6 segment:1 r:81 g:179 b:224 isHole:0" fill="none" stroke="url(#my_gradient_81-179-224)" stroke-width="2" opacity="0.9921568627450981" d="M 31.5 8 Q 38.6 8.8 41 14.5 L 42 16.5 L 42 26 L 38.5 27 L 19.5 27 L 19.5 26 L 38 26 L 38 17.5 L 31.5 10 L 30 9.5 L 31 8.5 Z" />
 <path desc="colorId:6 segment:2 r:81 g:179 b:224 isHole:0" fill="none" stroke="url(#my_gradient_81-179-224)" stroke-width="2" opacity="0.9921568627450981" d="M 24.5 14 L 29 14.5 L 24.5 15 L 24 14.5 Z" />
 <path desc="colorId:6 segment:3 r:81 g:179 b:224 isHole:0" fill="none" stroke="url(#my_gradient_81-179-224)" stroke-width="2" opacity="0.9921568627450981" d="M 14.5 24 L 18.5 31 L 20 30.5 L 19.5 32 Q 22.5 35 29.5 34 L 35.5 30 L 39 31.5 Q 34.8 38.8 21.5 37 L 12 29.5 L 11 27.5 L 12 25 L 14 24.5 Z" />
 <path desc="colorId:9 segment:0 r:238 g:182 b:29 isHole:0" fill="none" stroke="url(#my_gradient_238-182-29)" stroke-width="2" opacity="0.9411764705882353" d="M 32.5 4 Q 42 2 44 7.5 Q 45.3 12.8 42.5 14 L 42 11.5 L 43 9.5 L 42 7 Q 34.1 5.9 29.5 9 L 16 20.5 Q 8.3 26.3 8 39.5 L 11.5 42 L 15.5 41 L 15.5 42 L 7.5 43 Q 3.1 41.4 4 34.5 Q 8.4 19.4 19.5 11 L 32 4.5 Z" />
 <path desc="colorId:10 segment:2 r:33 g:92 b:137 isHole:0" fill="none" stroke="url(#my_gradient_33-92-137)" stroke-width="2" opacity="0.7490196078431373" d="M 19.5 21 L 34 21.5 L 19.5 22 L 19 21.5 Z" />
 <path desc="colorId:10 segment:3 r:33 g:92 b:137 isHole:0" fill="none" stroke="url(#my_gradient_33-92-137)" stroke-width="2" opacity="0.7490196078431373" d="M 44.5 21 L 45 26.5 L 44 26.5 L 44 21.5 Z" />
 <path desc="colorId:10 segment:7 r:33 g:92 b:137 isHole:0" fill="none" stroke="url(#my_gradient_33-92-137)" stroke-width="2" opacity="0.7490196078431373" d="M 24.5 42 L 29 42.5 L 24.5 43 L 24 42.5 Z" />
 <path desc="colorId:12 segment:2 r:30 g:133 b:203 isHole:0" fill="none" stroke="url(#my_gradient_30-133-203)" stroke-width="2" opacity="0.9921568627450981" d="M 41.5 15 Q 45.4 18.8 44 27 L 39 26.5 L 42 26 L 42 16.5 L 41 15.5 Z" />
 <path desc="colorId:12 segment:3 r:30 g:133 b:203 isHole:0" fill="none" stroke="url(#my_gradient_30-133-203)" stroke-width="2" opacity="0.9921568627450981" d="M 11.5 28 L 17.5 35 Q 21.5 38.5 30.5 37 L 39 31.5 L 36 30.5 L 41.5 30 Q 44.3 31.3 42 32.5 L 37.5 39 Q 32.7 43.7 21.5 42 L 13 36.5 L 10 29.5 L 11 28.5 Z" />
 <path desc="colorId:13 segment:1 r:15 g:17 b:14 isHole:0" fill="none" stroke="url(#my_gradient_15-17-14)" stroke-width="2" opacity="0.7647058823529411" d="M 38.5 10 Q 41.3 15.4 44 13.5 L 42.5 16 L 38 10.5 Z" />
 <path desc="colorId:13 segment:2 r:15 g:17 b:14 isHole:0" fill="none" stroke="url(#my_gradient_15-17-14)" stroke-width="2" opacity="0.7647058823529411" d="M 24.5 15 L 30 15.5 L 24.5 16 L 24 15.5 Z" />
 <path desc="colorId:13 segment:3 r:15 g:17 b:14 isHole:0" fill="none" stroke="url(#my_gradient_15-17-14)" stroke-width="2" opacity="0.7647058823529411" d="M 22.5 16 L 21 18.5 L 19.5 21 L 20 19.5 L 22 16.5 Z" />
 <path desc="colorId:13 segment:4 r:15 g:17 b:14 isHole:0" fill="none" stroke="url(#my_gradient_15-17-14)" stroke-width="2" opacity="0.7647058823529411" d="M 19 27 L 44 27.5 L 20.5 28 L 19.5 29 L 19 27.5 Z" />
 <path desc="colorId:13 segment:5 r:15 g:17 b:14 isHole:0" fill="none" stroke="url(#my_gradient_15-17-14)" stroke-width="2" opacity="0.7647058823529411" d="M 9.5 31 L 10 32.5 L 8.5 35 L 8 33.5 L 9 31.5 Z" />
 <path desc="colorId:13 segment:6 r:15 g:17 b:14 isHole:0" fill="none" stroke="url(#my_gradient_15-17-14)" stroke-width="2" opacity="0.7647058823529411" d="M 43.5 31 L 44 32.5 L 36.5 41 L 33.5 42 L 33.5 41 Q 39.6 39.6 42 34.5 L 43 31.5 Z" />
 <path desc="colorId:13 segment:7 r:15 g:17 b:14 isHole:0" fill="none" stroke="url(#my_gradient_15-17-14)" stroke-width="2" opacity="0.7647058823529411" d="M 29.5 42 L 32 42.5 L 29.5 43 L 29 42.5 Z" />
 <path desc="colorId:13 segment:8 r:15 g:17 b:14 isHole:0" fill="none" stroke="url(#my_gradient_15-17-14)" stroke-width="2" opacity="0.7647058823529411" d="M 8.5 43 L 13 43.5 L 8.5 44 L 8 43.5 Z" />
 <path desc="colorId:15 segment:0 r:130 g:120 b:48 isHole:0" fill="none" stroke="url(#my_gradient_130-120-48)" stroke-width="2" opacity="0.03137254901960784" d="M 36.5 3 L 39 3.5 L 36.5 4 L 36 3.5 Z" />
 <path desc="colorId:15 segment:1 r:130 g:120 b:48 isHole:0" fill="none" stroke="url(#my_gradient_130-120-48)" stroke-width="2" opacity="0.03137254901960784" d="M 7.5 23 L 8 24.5 L 6 25.5 L 7 23.5 Z" />
</svg>